<svg width="215" height="90" viewBox="0 0 215 90" fill="none" xmlns="http://www.w3.org/2000/svg">
<path d="M24.5155 18.5144C24.5155 18.5144 24.0859 13.5172 25.0483 11.8261C26.1141 9.95343 27.1891 9.36113 29.0449 8.61578C33.0416 7.01059 45.5643 4.87034 52.4918 4.06775C55.6978 3.69631 57.7914 4.87491 60.2186 7.01059C62.8434 9.32013 64.0929 11.5344 64.2152 15.0365C64.7481 30.2858 64.2152 57.5739 64.2152 57.5739" stroke="#01DF82" stroke-width="8"/>
<path d="M63.6525 71.4855C63.6525 71.4855 64.082 76.4827 63.1196 78.1737C62.0539 80.0464 60.9788 80.6387 59.123 81.3841C55.1264 82.9893 42.6036 85.1295 35.6762 85.9321C32.4701 86.3036 30.3766 85.125 27.9494 82.9893C25.3246 80.6797 24.0751 78.4655 23.9527 74.9634C23.4198 59.7141 23.9527 32.426 23.9527 32.426" stroke="#01DF82" stroke-width="8"/>
<path d="M18.4554 65.035C18.4554 65.035 13.4785 65.4663 11.7943 64.4999C9.92925 63.4298 9.33937 62.3504 8.59705 60.487C6.9984 56.474 4.86686 43.9001 4.06754 36.9443C3.69761 33.7252 4.8714 31.623 6.99839 29.1859C9.29854 26.5504 11.5038 25.2958 14.9916 25.1729C30.1788 24.6379 57.3559 25.1729 57.3559 25.1729" stroke="#01DF82" stroke-width="8"/>
<path d="M69.5446 25.031C69.5446 25.031 74.5215 24.5998 76.2057 25.5661C78.0707 26.6362 78.6606 27.7157 79.403 29.5791C81.0016 33.592 83.1331 46.166 83.9325 53.1218C84.3024 56.3409 83.1286 58.443 81.0016 60.8801C78.7015 63.5157 76.4962 64.7702 73.0084 64.8931C57.8212 65.4282 30.6441 64.8931 30.6441 64.8931" stroke="#01DF82" stroke-width="8"/>
<path d="M44.5 37.7766C48.3258 37.7767 51.4268 40.8912 51.4268 44.7327C51.4266 48.574 48.3257 51.6876 44.5 51.6877C40.6741 51.6877 37.5724 48.5741 37.5723 44.7327C37.5723 40.8911 40.6741 37.7766 44.5 37.7766ZM44.5 42.0569C43.0285 42.0569 41.835 43.2551 41.835 44.7327C41.8351 46.2101 43.0286 47.4075 44.5 47.4075C45.9713 47.4073 47.1639 46.21 47.1641 44.7327C47.1641 43.2552 45.9714 42.057 44.5 42.0569Z" fill="#01DF82"/>
<path d="M111.734 40.9999H101.391C101.307 40.9999 101.266 40.9479 101.266 40.8437L101.297 18.8593C101.297 18.776 101.339 18.7343 101.422 18.7343H111.703C111.786 18.7343 111.828 18.7864 111.828 18.8906V22.4687C111.828 22.552 111.786 22.5937 111.703 22.5937H105.141V27.5937H111.703C111.786 27.5937 111.828 27.6354 111.828 27.7187L111.859 31.3437C111.859 31.427 111.818 31.4687 111.734 31.4687H105.141V37.0624H111.734C111.818 37.0624 111.859 37.1145 111.859 37.2187V40.8749C111.859 40.9583 111.818 40.9999 111.734 40.9999ZM118.453 40.9999H114.828C114.745 40.9999 114.703 40.9479 114.703 40.8437L114.766 18.8593C114.766 18.776 114.807 18.7343 114.891 18.7343H121.359C122.516 18.7343 123.578 19.0156 124.547 19.5781C125.516 20.1406 126.286 20.8958 126.859 21.8437C127.443 22.7916 127.734 23.8645 127.734 25.0624C127.734 25.8437 127.615 26.552 127.375 27.1874C127.135 27.8229 126.854 28.3593 126.531 28.7968C126.219 29.2343 125.932 29.5572 125.672 29.7656C126.828 31.0468 127.406 32.552 127.406 34.2812L127.438 40.8437C127.438 40.9479 127.385 40.9999 127.281 40.9999H123.656C123.573 40.9999 123.531 40.9687 123.531 40.9062V34.2812C123.531 33.5104 123.26 32.8437 122.719 32.2812C122.177 31.7187 121.51 31.4374 120.719 31.4374H118.609L118.578 40.8437C118.578 40.9479 118.536 40.9999 118.453 40.9999ZM121.359 22.5624H118.609V27.5937H121.359C122.016 27.5937 122.599 27.3489 123.109 26.8593C123.63 26.3697 123.891 25.7708 123.891 25.0624C123.891 24.3854 123.641 23.802 123.141 23.3124C122.641 22.8124 122.047 22.5624 121.359 22.5624ZM133.891 40.9999H130.297C130.193 40.9999 130.141 40.9479 130.141 40.8437L130.203 18.8593C130.203 18.776 130.245 18.7343 130.328 18.7343H140.578C140.682 18.7343 140.734 18.776 140.734 18.8593V22.4687C140.734 22.552 140.693 22.5937 140.609 22.5937H134.047V27.5624H140.609C140.693 27.5624 140.734 27.6145 140.734 27.7187L140.766 31.3437C140.766 31.427 140.714 31.4687 140.609 31.4687H134.047V40.8437C134.047 40.9479 133.995 40.9999 133.891 40.9999ZM149.469 41.3124C148.312 41.3124 147.271 41.026 146.344 40.4531C145.406 39.8801 144.651 39.1093 144.078 38.1406C143.516 37.1718 143.234 36.0885 143.234 34.8906V24.7499C143.234 23.5833 143.521 22.5208 144.094 21.5624C144.656 20.5937 145.411 19.8229 146.359 19.2499C147.307 18.6666 148.344 18.3749 149.469 18.3749C150.646 18.3749 151.708 18.6562 152.656 19.2187C153.604 19.7916 154.354 20.5572 154.906 21.5156C155.469 22.4739 155.75 23.552 155.75 24.7499V26.2187C155.75 26.302 155.698 26.3437 155.594 26.3437H152C151.917 26.3437 151.875 26.302 151.875 26.2187V24.9999C151.875 24.1874 151.646 23.5156 151.188 22.9843C150.729 22.4531 150.156 22.1874 149.469 22.1874C148.854 22.1874 148.307 22.4426 147.828 22.9531C147.349 23.4635 147.109 24.0624 147.109 24.7499V34.8906C147.109 35.5885 147.344 36.1926 147.812 36.7031C148.281 37.2031 148.833 37.4531 149.469 37.4531C150.156 37.4531 150.729 37.2083 151.188 36.7187C151.646 36.2187 151.875 35.6093 151.875 34.8906V33.3124H149.641C149.526 33.3124 149.469 33.2604 149.469 33.1562V29.5781C149.469 29.4739 149.526 29.4218 149.641 29.4218H155.625C155.708 29.4218 155.75 29.4739 155.75 29.5781V34.8906C155.75 36.0885 155.469 37.1718 154.906 38.1406C154.333 39.1093 153.578 39.8801 152.641 40.4531C151.703 41.026 150.646 41.3124 149.469 41.3124ZM163.938 41.3124C162.802 41.3124 161.755 41.0208 160.797 40.4374C159.849 39.8541 159.083 39.0781 158.5 38.1093C157.927 37.1301 157.641 36.0572 157.641 34.8906L157.672 24.7499C157.672 23.5624 157.958 22.4947 158.531 21.5468C159.094 20.5885 159.854 19.8229 160.812 19.2499C161.771 18.6666 162.812 18.3749 163.938 18.3749C165.104 18.3749 166.151 18.6614 167.078 19.2343C168.016 19.8072 168.766 20.5781 169.328 21.5468C169.901 22.5051 170.188 23.5729 170.188 24.7499L170.219 34.8906C170.219 36.0572 169.938 37.1249 169.375 38.0937C168.802 39.0729 168.042 39.8541 167.094 40.4374C166.146 41.0208 165.094 41.3124 163.938 41.3124ZM163.938 37.4531C164.583 37.4531 165.146 37.1926 165.625 36.6718C166.104 36.1406 166.344 35.5468 166.344 34.8906L166.312 24.7499C166.312 24.0416 166.089 23.4426 165.641 22.9531C165.193 22.4635 164.625 22.2187 163.938 22.2187C163.281 22.2187 162.719 22.4583 162.25 22.9374C161.781 23.4166 161.547 24.0208 161.547 24.7499V34.8906C161.547 35.5885 161.781 36.1926 162.25 36.7031C162.719 37.2031 163.281 37.4531 163.938 37.4531ZM183.109 40.9999H172.766C172.682 40.9999 172.641 40.9479 172.641 40.8437L172.672 18.8593C172.672 18.776 172.714 18.7343 172.797 18.7343H183.078C183.161 18.7343 183.203 18.7864 183.203 18.8906V22.4687C183.203 22.552 183.161 22.5937 183.078 22.5937H176.516V27.5937H183.078C183.161 27.5937 183.203 27.6354 183.203 27.7187L183.234 31.3437C183.234 31.427 183.193 31.4687 183.109 31.4687H176.516V37.0624H183.109C183.193 37.0624 183.234 37.1145 183.234 37.2187V40.8749C183.234 40.9583 183.193 40.9999 183.109 40.9999ZM191.969 40.9687L186.234 40.9999C186.13 40.9999 186.078 40.9479 186.078 40.8437L186.141 18.8593C186.141 18.776 186.182 18.7343 186.266 18.7343L192.25 18.7031C193.438 18.6718 194.51 18.9426 195.469 19.5156C196.438 20.0885 197.208 20.8645 197.781 21.8437C198.365 22.8124 198.656 23.8854 198.656 25.0624V34.2499C198.656 35.4791 198.359 36.6041 197.766 37.6249C197.161 38.6354 196.359 39.4426 195.359 40.0468C194.359 40.6406 193.229 40.9479 191.969 40.9687ZM192.25 22.5312L190.016 22.5624L189.984 37.0624H191.969C192.76 37.0624 193.427 36.7864 193.969 36.2343C194.51 35.6822 194.781 35.0208 194.781 34.2499V25.0312C194.781 24.3541 194.531 23.7656 194.031 23.2656C193.531 22.7551 192.938 22.5104 192.25 22.5312Z" fill="#01DF82"/>
<path d="M105.016 68.9999H101.422C101.318 68.9999 101.266 68.9479 101.266 68.8437L101.328 46.8593C101.328 46.776 101.37 46.7343 101.453 46.7343H107.609C109.568 46.7343 111.115 47.3333 112.25 48.5312C113.396 49.7187 113.969 51.3385 113.969 53.3906C113.969 54.8906 113.672 56.1979 113.078 57.3124C112.474 58.4166 111.693 59.2708 110.734 59.8749C109.776 60.4791 108.734 60.7812 107.609 60.7812H105.172V68.8437C105.172 68.9479 105.12 68.9999 105.016 68.9999ZM107.609 50.5312L105.172 50.5624V56.9062H107.609C108.286 56.9062 108.875 56.5833 109.375 55.9374C109.875 55.2812 110.125 54.4322 110.125 53.3906C110.125 52.5572 109.901 51.8749 109.453 51.3437C109.005 50.802 108.391 50.5312 107.609 50.5312ZM114.812 68.8437L118.781 46.8593C118.802 46.776 118.854 46.7343 118.938 46.7343H123.578C123.661 46.7343 123.714 46.776 123.734 46.8593L127.547 68.8437C127.557 68.9479 127.516 68.9999 127.422 68.9999H123.875C123.771 68.9999 123.714 68.9479 123.703 68.8437L123.359 66.4999H119L118.656 68.8437C118.646 68.9479 118.594 68.9999 118.5 68.9999H114.938C114.854 68.9999 114.812 68.9479 114.812 68.8437ZM121.078 54.0937L119.641 63.0781H122.719L121.406 54.0937L121.219 52.9062L121.078 54.0937ZM134.984 69.3124C133.849 69.3124 132.802 69.0208 131.844 68.4374C130.896 67.8541 130.135 67.0781 129.562 66.1093C129 65.1301 128.719 64.0572 128.719 62.8906V61.4218C128.719 61.3072 128.771 61.2499 128.875 61.2499H132.469C132.552 61.2499 132.594 61.3072 132.594 61.4218V62.8906C132.594 63.5885 132.828 64.1926 133.297 64.7031C133.766 65.2031 134.328 65.4531 134.984 65.4531C135.651 65.4531 136.219 65.1979 136.688 64.6874C137.156 64.1666 137.391 63.5676 137.391 62.8906C137.391 62.1093 136.88 61.427 135.859 60.8437C135.693 60.7395 135.474 60.6145 135.203 60.4687C134.943 60.3124 134.63 60.1354 134.266 59.9374C133.901 59.7395 133.547 59.5468 133.203 59.3593C132.859 59.1614 132.526 58.9739 132.203 58.7968C131.036 58.1093 130.167 57.2499 129.594 56.2187C129.031 55.177 128.75 54.0104 128.75 52.7187C128.75 51.5312 129.042 50.4583 129.625 49.4999C130.208 48.552 130.969 47.802 131.906 47.2499C132.854 46.6874 133.88 46.4062 134.984 46.4062C136.12 46.4062 137.161 46.6874 138.109 47.2499C139.057 47.8229 139.812 48.5833 140.375 49.5312C140.948 50.4791 141.234 51.5416 141.234 52.7187V55.3437C141.234 55.427 141.193 55.4687 141.109 55.4687H137.516C137.432 55.4687 137.391 55.427 137.391 55.3437L137.359 52.7187C137.359 51.9687 137.125 51.3593 136.656 50.8906C136.188 50.4218 135.63 50.1874 134.984 50.1874C134.328 50.1874 133.766 50.4374 133.297 50.9374C132.828 51.4374 132.594 52.0312 132.594 52.7187C132.594 53.4166 132.74 53.9999 133.031 54.4687C133.333 54.9374 133.88 55.3854 134.672 55.8124C134.755 55.8541 134.948 55.9583 135.25 56.1249C135.552 56.2916 135.885 56.4791 136.25 56.6874C136.625 56.8854 136.964 57.0676 137.266 57.2343C137.568 57.3906 137.75 57.4843 137.812 57.5156C138.875 58.1093 139.714 58.8385 140.328 59.7031C140.953 60.5676 141.266 61.6301 141.266 62.8906C141.266 64.1093 140.984 65.2031 140.422 66.1718C139.849 67.1406 139.089 67.9062 138.141 68.4687C137.193 69.0312 136.141 69.3124 134.984 69.3124ZM147.234 68.9999H143.641C143.536 68.9999 143.484 68.9479 143.484 68.8437L143.547 46.8593C143.547 46.776 143.589 46.7343 143.672 46.7343H149.828C151.786 46.7343 153.333 47.3333 154.469 48.5312C155.615 49.7187 156.188 51.3385 156.188 53.3906C156.188 54.8906 155.891 56.1979 155.297 57.3124C154.693 58.4166 153.911 59.2708 152.953 59.8749C151.995 60.4791 150.953 60.7812 149.828 60.7812H147.391V68.8437C147.391 68.9479 147.339 68.9999 147.234 68.9999ZM149.828 50.5312L147.391 50.5624V56.9062H149.828C150.505 56.9062 151.094 56.5833 151.594 55.9374C152.094 55.2812 152.344 54.4322 152.344 53.3906C152.344 52.5572 152.12 51.8749 151.672 51.3437C151.224 50.802 150.609 50.5312 149.828 50.5312ZM164.281 69.3124C163.146 69.3124 162.099 69.0208 161.141 68.4374C160.193 67.8541 159.427 67.0781 158.844 66.1093C158.271 65.1301 157.984 64.0572 157.984 62.8906L158.016 52.7499C158.016 51.5624 158.302 50.4947 158.875 49.5468C159.438 48.5885 160.198 47.8229 161.156 47.2499C162.115 46.6666 163.156 46.3749 164.281 46.3749C165.448 46.3749 166.495 46.6614 167.422 47.2343C168.359 47.8072 169.109 48.5781 169.672 49.5468C170.245 50.5051 170.531 51.5729 170.531 52.7499L170.562 62.8906C170.562 64.0572 170.281 65.1249 169.719 66.0937C169.146 67.0729 168.385 67.8541 167.438 68.4374C166.49 69.0208 165.438 69.3124 164.281 69.3124ZM164.281 65.4531C164.927 65.4531 165.49 65.1926 165.969 64.6718C166.448 64.1406 166.688 63.5468 166.688 62.8906L166.656 52.7499C166.656 52.0416 166.432 51.4426 165.984 50.9531C165.536 50.4635 164.969 50.2187 164.281 50.2187C163.625 50.2187 163.062 50.4583 162.594 50.9374C162.125 51.4166 161.891 52.0208 161.891 52.7499V62.8906C161.891 63.5885 162.125 64.1926 162.594 64.7031C163.062 65.2031 163.625 65.4531 164.281 65.4531ZM178.906 69.3124C177.771 69.3124 176.724 69.0208 175.766 68.4374C174.818 67.8541 174.052 67.0781 173.469 66.1093C172.896 65.1301 172.609 64.0572 172.609 62.8906L172.641 52.7499C172.641 51.5624 172.927 50.4947 173.5 49.5468C174.062 48.5885 174.823 47.8229 175.781 47.2499C176.74 46.6666 177.781 46.3749 178.906 46.3749C180.073 46.3749 181.12 46.6614 182.047 47.2343C182.984 47.8072 183.734 48.5781 184.297 49.5468C184.87 50.5051 185.156 51.5729 185.156 52.7499L185.188 62.8906C185.188 64.0572 184.906 65.1249 184.344 66.0937C183.771 67.0729 183.01 67.8541 182.062 68.4374C181.115 69.0208 180.062 69.3124 178.906 69.3124ZM178.906 65.4531C179.552 65.4531 180.115 65.1926 180.594 64.6718C181.073 64.1406 181.312 63.5468 181.312 62.8906L181.281 52.7499C181.281 52.0416 181.057 51.4426 180.609 50.9531C180.161 50.4635 179.594 50.2187 178.906 50.2187C178.25 50.2187 177.688 50.4583 177.219 50.9374C176.75 51.4166 176.516 52.0208 176.516 52.7499V62.8906C176.516 63.5885 176.75 64.1926 177.219 64.7031C177.688 65.2031 178.25 65.4531 178.906 65.4531ZM191.359 68.9999H187.734C187.651 68.9999 187.609 68.9479 187.609 68.8437L187.672 46.8593C187.672 46.776 187.714 46.7343 187.797 46.7343H194.266C195.422 46.7343 196.484 47.0156 197.453 47.5781C198.422 48.1406 199.193 48.8958 199.766 49.8437C200.349 50.7916 200.641 51.8645 200.641 53.0624C200.641 53.8437 200.521 54.552 200.281 55.1874C200.042 55.8229 199.76 56.3593 199.438 56.7968C199.125 57.2343 198.839 57.5572 198.578 57.7656C199.734 59.0468 200.312 60.552 200.312 62.2812L200.344 68.8437C200.344 68.9479 200.292 68.9999 200.188 68.9999H196.562C196.479 68.9999 196.438 68.9687 196.438 68.9062V62.2812C196.438 61.5104 196.167 60.8437 195.625 60.2812C195.083 59.7187 194.417 59.4374 193.625 59.4374H191.516L191.484 68.8437C191.484 68.9479 191.443 68.9999 191.359 68.9999ZM194.266 50.5624H191.516V55.5937H194.266C194.922 55.5937 195.505 55.3489 196.016 54.8593C196.536 54.3697 196.797 53.7708 196.797 53.0624C196.797 52.3854 196.547 51.802 196.047 51.3124C195.547 50.8124 194.953 50.5624 194.266 50.5624ZM209.875 68.9999H206.266C206.172 68.9999 206.125 68.9479 206.125 68.8437V50.5937H201.969C201.865 50.5937 201.812 50.5416 201.812 50.4374L201.844 46.8593C201.844 46.776 201.885 46.7343 201.969 46.7343H214.125C214.24 46.7343 214.297 46.776 214.297 46.8593V50.4374C214.297 50.5416 214.255 50.5937 214.172 50.5937H209.969L210 68.8437C210 68.9479 209.958 68.9999 209.875 68.9999Z" fill="#01DF82"/>
</svg>
