<svg xmlns="http://www.w3.org/2000/svg" version="1.1" xmlns:xlink="http://www.w3.org/1999/xlink" width="128" height="130"><svg width="128" height="130" viewBox="0 0 128 130" fill="none" xmlns="http://www.w3.org/2000/svg">
<path d="M34.774 25.5946C34.774 25.5946 34.1297 18.1597 35.5733 15.6437C37.1719 12.8575 38.7845 11.9763 41.5682 10.8673C47.5632 8.47914 66.3473 5.29487 76.7385 4.10077C81.5475 3.54814 84.6879 5.30166 88.3287 8.47914C92.2659 11.9153 94.1401 15.2097 94.3237 20.4201C95.123 43.1081 94.3237 83.7075 94.3237 83.7075" stroke="#01DF82" stroke-width="8"></path>
<path d="M93.4799 104.405C93.4799 104.405 94.1242 111.84 92.6806 114.356C91.082 117.142 89.4694 118.023 86.6857 119.132C80.6907 121.521 61.9066 124.705 51.5154 125.899C46.7064 126.452 43.566 124.698 39.9252 121.521C35.988 118.084 34.1138 114.79 33.9303 109.58C33.1309 86.8917 33.9303 46.2923 33.9303 46.2923" stroke="#01DF82" stroke-width="8"></path>
<path d="M25.683 94.8082C25.683 94.8082 18.2177 95.4498 15.6915 94.0122C12.8938 92.42 12.009 90.814 10.8955 88.0417C8.49753 82.0712 5.30023 63.3636 4.10124 53.0147C3.54636 48.2253 5.30705 45.0977 8.49753 41.4717C11.9477 37.5506 15.2556 35.6841 20.4874 35.5012C43.2682 34.7052 84.0337 35.5012 84.0337 35.5012" stroke="#01DF82" stroke-width="8"></path>
<path d="M102.317 35.29C102.317 35.29 109.782 34.6484 112.308 36.0861C115.106 37.6782 115.991 39.2842 117.104 42.0566C119.502 48.0271 122.7 66.7347 123.899 77.0836C124.454 81.873 122.693 85.0006 119.502 88.6265C116.052 92.5477 112.744 94.4142 107.512 94.597C84.7317 95.3931 43.9662 94.597 43.9662 94.597" stroke="#01DF82" stroke-width="8"></path>
<path d="M64.749 54.2529C70.4877 54.2531 75.1395 58.8863 75.1396 64.6016C75.1396 70.317 70.4878 74.95 64.749 74.9502C59.0101 74.9502 54.3574 70.3171 54.3574 64.6016C54.3576 58.8861 59.0102 54.2529 64.749 54.2529ZM64.749 60.6211C62.5418 60.6211 60.7521 62.4034 60.752 64.6016C60.752 66.7998 62.5417 68.582 64.749 68.582C66.9561 68.5818 68.7451 66.7997 68.7451 64.6016C68.745 62.4035 66.956 60.6213 64.749 60.6211Z" fill="#01DF82"></path>
</svg><style>@media (prefers-color-scheme: light) { :root { filter: none; } }
@media (prefers-color-scheme: dark) { :root { filter: none; } }
</style></svg>